<svg width="20" height="20" viewBox="0 0 20 20" fill="none" xmlns="http://www.w3.org/2000/svg">
<path d="M8.33398 14.25C9.66837 14.2504 10.75 15.3325 10.75 16.667C10.7498 18.0013 9.66826 19.0827 8.33398 19.083C6.9994 19.083 5.91717 18.0015 5.91699 16.667C5.91699 15.3323 6.9993 14.25 8.33398 14.25ZM15 14.25C16.3345 14.2502 17.416 15.3324 17.416 16.667C17.4158 18.0014 16.3344 19.0828 15 19.083C13.6656 19.0828 12.5832 18.0014 12.583 16.667C12.583 15.3324 13.6655 14.2502 15 14.25ZM8.33398 15.75C7.82772 15.75 7.41699 16.1607 7.41699 16.667C7.41717 17.1731 7.82783 17.583 8.33398 17.583C8.83984 17.5827 9.24982 17.1729 9.25 16.667C9.25 16.1609 8.83995 15.7504 8.33398 15.75ZM15 15.75C14.4939 15.7502 14.083 16.1608 14.083 16.667C14.0832 17.173 14.494 17.5828 15 17.583C15.506 17.5828 15.9158 17.173 15.916 16.667C15.916 16.1608 15.5061 15.7502 15 15.75ZM1.25 0.0830078C2.80121 0.08318 4.16533 1.10138 4.61133 2.58301H13.8223C14.4531 2.58301 14.9566 2.58279 15.3604 2.60449C15.7657 2.62631 16.1245 2.6725 16.458 2.78711C17.8875 3.27879 18.8821 4.58139 18.9805 6.08984C19.0033 6.44177 18.9538 6.80037 18.8682 7.19727C18.7829 7.59248 18.6494 8.0779 18.4834 8.68652C18.2177 9.66058 18.0565 10.2721 17.7764 10.7832C17.1322 11.9581 16.0217 12.8067 14.7188 13.1191C14.1519 13.255 13.5185 13.25 12.5088 13.25H11.4941C9.83118 13.25 8.78414 13.2635 7.8877 12.8975C7.12586 12.5862 6.45774 12.0816 5.94922 11.4346C5.35108 10.6732 5.07593 9.66323 4.61914 8.06445L3.32617 3.53906L3.18457 3.04199C2.93764 2.17866 2.14797 1.58318 1.25 1.58301H0.833008C0.418986 1.58283 0.0830583 1.24708 0.0830078 0.833008C0.0832109 0.419118 0.4191 0.0832341 0.833008 0.0830078H1.25ZM6.06152 7.65234C6.55509 9.37982 6.75608 10.0344 7.12793 10.5078C7.47585 10.9505 7.93383 11.2958 8.45508 11.5088C9.01252 11.7363 9.69725 11.75 11.4941 11.75H12.5088C13.5982 11.75 14.0167 11.7446 14.3691 11.6602C15.2605 11.4464 16.0202 10.8662 16.4609 10.0625C16.6351 9.74472 16.7495 9.34284 17.0361 8.29199C17.2064 7.66755 17.3266 7.2274 17.4014 6.88086C17.4757 6.53622 17.4931 6.3348 17.4834 6.18652C17.4242 5.28171 16.8282 4.50008 15.9707 4.20508C15.8302 4.1568 15.6312 4.12147 15.2793 4.10254C14.9253 4.08352 14.4694 4.08301 13.8223 4.08301H5.04199L6.06152 7.65234Z" fill="white"/>
</svg>
